<svg xmlns="http://www.w3.org/2000/svg" width="18" height="18" viewBox="0 0 18 18">
  <path id="Icon" d="M12,3a9.092,9.092,0,0,0-9,9,9,9,0,0,0,18,0A8.963,8.963,0,0,0,12,3Zm0,1.4a8.676,8.676,0,0,1,2.8.5,1.141,1.141,0,0,1-.3.6,1.555,1.555,0,0,1-.6.8,4.349,4.349,0,0,1-.7.6c-.3.2-.5.4-.8.6-.2.1-.3.2-.4.2h0a1.344,1.344,0,0,1-.2-.9c0-.4.3-.7.2-1.2,0,.1-.1-.6-.1-.6-.4-.1-.7,0-.6-.4h0A1.854,1.854,0,0,1,12,4.4ZM8.5,5.8a2.2,2.2,0,0,1,.8.1c.3.1.6.2.7.4a1.27,1.27,0,0,1,.4.7c0,.1,0,.1-.1.2a.367.367,0,0,1-.3.1c-.3,0-.6,0-.7-.1L9,6.9c-.5-.2-1.3,1-1.4,1.3s-.1.9.4,1c.3,0,.8-.6,1.1-.7a1.38,1.38,0,0,0,.4-.3A1.487,1.487,0,0,1,11,9.4c.3.7-1.1,1.3-1.6,1.4-.2.1-.3-.1-.4,0a1.521,1.521,0,0,0-1,1.3c-.1.4-.1.9-.2,1.3-.1,0-.2,0-.2-.1v-.2a.67.67,0,0,0-.4-.7H7c-.3,0-.5-.3-.8-.1a1.012,1.012,0,0,0-.4.7.367.367,0,0,0,.1.3c.2.1.4-.1.6,0,.2,0,.2.2.2.3.2.3.3.6.6.7H9a2.471,2.471,0,0,1,.9.4c.1.2.1.4.2.5.4.5,1,.4,1.5.6.2.1.3.2.3.4a1.063,1.063,0,0,1-.1.8,2.01,2.01,0,0,1-.4.8c-.2.2-.4.3-.5.4a2.7,2.7,0,0,0-.7.8l-.2.4a10.837,10.837,0,0,1-1.9-.8v-.3l-.3-.9c-.2-.5-.6-.9-.6-1.5,0-.4.1-.9-.2-1.2-.4-.4-1.1-.5-1.4-.7a5.73,5.73,0,0,1-1.1-1.1c0-.2-.1-.5-.1-.7a7.677,7.677,0,0,1,3-6A1.862,1.862,0,0,1,8.5,5.8Zm8.3.4A7.553,7.553,0,0,1,19.6,12a7.391,7.391,0,0,1-3.1,6.1l-.3-.9a4.875,4.875,0,0,1-.4-1.1,3.81,3.81,0,0,0-.3-1c-.2-.1-.3-.1-.5-.2-.6-.3-1.5.1-1.9-.5-.2-.3-.1-.5-.1-.9a2.994,2.994,0,0,0,.4-.8,6.117,6.117,0,0,0,.5-1.2c.1-.2,0-.5.1-.6s.3-.2.4-.3.2-.1.2-.2-.1-.1-.1-.2a.758.758,0,0,1,.2-.4A15.934,15.934,0,0,0,16,8.5a.1.1,0,0,0,.1-.1c.1-.1,0-.2-.1-.2,0-.1-.1-.1-.3-.2-.1,0-.2,0-.2-.1-.1-.1,0-.3.1-.4l.5-.8C16.3,6.6,16.5,6.3,16.8,6.2Z" transform="translate(-3 -3)"/>
</svg>
