<svg id="Share_Icon" data-name="Share Icon" xmlns="http://www.w3.org/2000/svg" width="24" height="24" viewBox="0 0 24 24">
  <path id="Bounds" d="M0,0H24V24H0Z" fill="none"/>
  <path id="Icon" d="M18,16.1a2.973,2.973,0,0,0-2,.8L8.9,12.7A1.7,1.7,0,0,0,9,12a1.7,1.7,0,0,0-.1-.7L16,7.2A2.792,2.792,0,0,0,18,8a2.946,2.946,0,0,0,3-3,3,3,0,0,0-6,0,1.7,1.7,0,0,0,.1.7L8,9.8A2.792,2.792,0,0,0,6,9a3,3,0,0,0,0,6,2.792,2.792,0,0,0,2-.8l7.1,4.2a1.268,1.268,0,0,0-.1.6,2.9,2.9,0,0,0,5.8,0A2.818,2.818,0,0,0,18,16.1Z"/>
</svg>
